<mxfile host="Electron" agent="Mozilla/5.0 (Windows NT 10.0; Win64; x64) AppleWebKit/537.36 (KHTML, like Gecko) draw.io/26.2.2 Chrome/134.0.6998.178 Electron/35.1.2 Safari/537.36" version="26.2.2">
  <diagram name="Page-1" id="J19R9I7oRn4WABSakmWh">
    <mxGraphModel dx="1428" dy="849" grid="1" gridSize="10" guides="1" tooltips="1" connect="1" arrows="1" fold="1" page="1" pageScale="1" pageWidth="827" pageHeight="1169" math="0" shadow="0">
      <root>
        <mxCell id="0" />
        <mxCell id="1" parent="0" />
        <mxCell id="hf5_hMSr9yJB3gLrEwT5-14" style="edgeStyle=orthogonalEdgeStyle;rounded=0;orthogonalLoop=1;jettySize=auto;html=1;exitX=1;exitY=0.5;exitDx=0;exitDy=0;entryX=0;entryY=0.5;entryDx=0;entryDy=0;" edge="1" parent="1" source="hf5_hMSr9yJB3gLrEwT5-1" target="hf5_hMSr9yJB3gLrEwT5-3">
          <mxGeometry relative="1" as="geometry" />
        </mxCell>
        <mxCell id="hf5_hMSr9yJB3gLrEwT5-1" value="Nhắn tin" style="rounded=1;whiteSpace=wrap;html=1;" vertex="1" parent="1">
          <mxGeometry x="350" y="20" width="120" height="60" as="geometry" />
        </mxCell>
        <mxCell id="hf5_hMSr9yJB3gLrEwT5-2" value="Nhắn tin thành công" style="rounded=1;whiteSpace=wrap;html=1;" vertex="1" parent="1">
          <mxGeometry x="350" y="410" width="120" height="60" as="geometry" />
        </mxCell>
        <mxCell id="hf5_hMSr9yJB3gLrEwT5-6" style="edgeStyle=orthogonalEdgeStyle;rounded=0;orthogonalLoop=1;jettySize=auto;html=1;exitX=0.5;exitY=1;exitDx=0;exitDy=0;entryX=0.5;entryY=0;entryDx=0;entryDy=0;" edge="1" parent="1" source="hf5_hMSr9yJB3gLrEwT5-3" target="hf5_hMSr9yJB3gLrEwT5-5">
          <mxGeometry relative="1" as="geometry" />
        </mxCell>
        <mxCell id="hf5_hMSr9yJB3gLrEwT5-3" value="Tải những người đã từng nhắn" style="shape=process;whiteSpace=wrap;html=1;backgroundOutline=1;" vertex="1" parent="1">
          <mxGeometry x="510" y="20" width="120" height="60" as="geometry" />
        </mxCell>
        <mxCell id="hf5_hMSr9yJB3gLrEwT5-8" style="edgeStyle=orthogonalEdgeStyle;rounded=0;orthogonalLoop=1;jettySize=auto;html=1;exitX=0.5;exitY=1;exitDx=0;exitDy=0;entryX=0.5;entryY=0;entryDx=0;entryDy=0;" edge="1" parent="1" source="hf5_hMSr9yJB3gLrEwT5-5" target="hf5_hMSr9yJB3gLrEwT5-7">
          <mxGeometry relative="1" as="geometry" />
        </mxCell>
        <mxCell id="hf5_hMSr9yJB3gLrEwT5-5" value="Chọn người nhắn" style="shape=parallelogram;perimeter=parallelogramPerimeter;whiteSpace=wrap;html=1;fixedSize=1;" vertex="1" parent="1">
          <mxGeometry x="510" y="120" width="120" height="60" as="geometry" />
        </mxCell>
        <mxCell id="hf5_hMSr9yJB3gLrEwT5-10" style="edgeStyle=orthogonalEdgeStyle;rounded=0;orthogonalLoop=1;jettySize=auto;html=1;exitX=0.5;exitY=1;exitDx=0;exitDy=0;entryX=0.5;entryY=0;entryDx=0;entryDy=0;" edge="1" parent="1" source="hf5_hMSr9yJB3gLrEwT5-7" target="hf5_hMSr9yJB3gLrEwT5-9">
          <mxGeometry relative="1" as="geometry" />
        </mxCell>
        <mxCell id="hf5_hMSr9yJB3gLrEwT5-7" value="Tải các tin nhắn liên quan với người dùng hiện tại và người được chọn" style="shape=process;whiteSpace=wrap;html=1;backgroundOutline=1;" vertex="1" parent="1">
          <mxGeometry x="480" y="220" width="180" height="60" as="geometry" />
        </mxCell>
        <mxCell id="hf5_hMSr9yJB3gLrEwT5-12" style="edgeStyle=orthogonalEdgeStyle;rounded=0;orthogonalLoop=1;jettySize=auto;html=1;exitX=0.5;exitY=1;exitDx=0;exitDy=0;entryX=0.5;entryY=0;entryDx=0;entryDy=0;" edge="1" parent="1" source="hf5_hMSr9yJB3gLrEwT5-9" target="hf5_hMSr9yJB3gLrEwT5-11">
          <mxGeometry relative="1" as="geometry" />
        </mxCell>
        <mxCell id="hf5_hMSr9yJB3gLrEwT5-9" value="Nhập nội dung tin nhắn" style="shape=parallelogram;perimeter=parallelogramPerimeter;whiteSpace=wrap;html=1;fixedSize=1;" vertex="1" parent="1">
          <mxGeometry x="510" y="310" width="120" height="60" as="geometry" />
        </mxCell>
        <mxCell id="hf5_hMSr9yJB3gLrEwT5-15" style="edgeStyle=orthogonalEdgeStyle;rounded=0;orthogonalLoop=1;jettySize=auto;html=1;exitX=0;exitY=0.5;exitDx=0;exitDy=0;entryX=1;entryY=0.5;entryDx=0;entryDy=0;" edge="1" parent="1" source="hf5_hMSr9yJB3gLrEwT5-11" target="hf5_hMSr9yJB3gLrEwT5-2">
          <mxGeometry relative="1" as="geometry" />
        </mxCell>
        <mxCell id="hf5_hMSr9yJB3gLrEwT5-11" value="Tải tin nhắn mới lên CSDL" style="shape=process;whiteSpace=wrap;html=1;backgroundOutline=1;" vertex="1" parent="1">
          <mxGeometry x="510" y="410" width="120" height="60" as="geometry" />
        </mxCell>
      </root>
    </mxGraphModel>
  </diagram>
</mxfile>
